<svg id="Layer_1" data-name="Layer 1" xmlns="http://www.w3.org/2000/svg" viewBox="0 0 300 200"><defs><style>.cls-1{fill:#188038;}.cls-2,.cls-3,.cls-4{fill:#fff;}.cls-2{opacity:0.8;}.cls-3{opacity:0.5;}</style></defs><title>volunteer variant3</title><rect class="cls-1" width="300" height="200"/><path class="cls-2" d="M97.88,80.69c-1.14,23.58-13.21,42.16-13.21,42.16s-10.2-19.66-9-43.25,7.07-42.46,13.22-42.16S99,57.1,97.88,80.69Z"/><path class="cls-3" d="M49.37,84.06c-12.61-24.85-17.5-47.7-10.92-51S60.58,47.13,73.19,72,85,121.84,84.12,123C82.78,124.74,62,108.91,49.37,84.06Z"/><path class="cls-2" d="M106.27,74.13c19.07-20.32,40.33-31.35,47.51-24.62s-2.47,28.65-21.54,49S86.9,125.2,84.74,123.11C83,121.38,87.21,94.46,106.27,74.13Z"/><path class="cls-4" d="M74.1,121.56,67.89,137a1.07,1.07,0,0,1-1,.66H63.5a1.06,1.06,0,0,1-1-.67l-6.18-15.43a1.06,1.06,0,0,1,1-1.45h3.16a1.05,1.05,0,0,1,1,.72l2.73,8.22a1.05,1.05,0,0,0,2,0L69,120.83a1.06,1.06,0,0,1,1-.72h3.16A1.06,1.06,0,0,1,74.1,121.56Z"/><path class="cls-4" d="M75.06,128.88A9.16,9.16,0,1,1,84.22,138,8.92,8.92,0,0,1,75.06,128.88Zm13.26,0c0-2.59-1.68-4.66-4.1-4.66s-4.11,2.07-4.11,4.66,1.62,4.64,4.11,4.64S88.32,131.48,88.32,128.88Z"/><path class="cls-4" d="M96.7,131.52V112.4a1.05,1.05,0,0,1,1-1.06h3a1.05,1.05,0,0,1,1,1.06v19.15c0,1.44.74,2.14,1.83,2.14a2.59,2.59,0,0,0,.91-.15,1,1,0,0,1,1.25.38l1.28,1.91a1,1,0,0,1-.35,1.51,6.52,6.52,0,0,1-3.06.67C98.91,138,96.7,135.41,96.7,131.52Z"/><path class="cls-4" d="M125.85,121.17V136.6a1.06,1.06,0,0,1-1,1.06h-2.59a1.05,1.05,0,0,1-1-.91l-.16-1.16a7,7,0,0,1-12.24-4.71v-9.71a1.05,1.05,0,0,1,1-1.06h3a1.05,1.05,0,0,1,1,1.06v9.08a3.25,3.25,0,0,0,3.3,3.27,3.43,3.43,0,0,0,3.58-3.27v-9.08a1.05,1.05,0,0,1,1-1.06h3A1.05,1.05,0,0,1,125.85,121.17Z"/><path class="cls-4" d="M147.15,126.57v10a1.07,1.07,0,0,1-1.06,1.06h-3A1.06,1.06,0,0,1,142,136.6v-9.4a3,3,0,0,0-3.26-3,3.4,3.4,0,0,0-3.58,3.26v9.12a1.06,1.06,0,0,1-1.05,1.06h-3a1.06,1.06,0,0,1-1.05-1.06V121.17a1.05,1.05,0,0,1,1.05-1.06h2.63a1.05,1.05,0,0,1,1,.91l.16,1.13a7.08,7.08,0,0,1,5.33-2.39C144.37,119.76,147.15,122.43,147.15,126.57Z"/><path class="cls-4" d="M162.06,135.83a1,1,0,0,1-.36,1.51,6.51,6.51,0,0,1-3,.67c-4.77,0-7-2.6-7-6.49V125a1.05,1.05,0,0,0-1.06-1h0a1.05,1.05,0,0,1-1.05-1.06v-1.71a1.05,1.05,0,0,1,1.05-1.06h0a1.05,1.05,0,0,0,1.06-1V115.2a1,1,0,0,1,1.05-1h3a1,1,0,0,1,1,1v3.86a1,1,0,0,0,1.05,1h2.28a1.05,1.05,0,0,1,1,1.06v1.71a1.05,1.05,0,0,1-1,1.06h-2.28a1,1,0,0,0-1.05,1v6.56c0,1.44.74,2.14,1.82,2.14a2.52,2.52,0,0,0,.91-.15,1,1,0,0,1,1.25.38Z"/><path class="cls-4" d="M180.54,130.36H170a1.07,1.07,0,0,0-1,1.45,3.4,3.4,0,0,0,3.52,2.27,4.14,4.14,0,0,0,3.58-1.75,1,1,0,0,1,1.28-.28l1.83.9a1.06,1.06,0,0,1,.42,1.53,8.11,8.11,0,0,1-7,3.53c-6.14,0-9.05-3.9-9.05-9.13s3.26-9.15,8.87-9.15c5.09,0,8.21,3.58,8.21,9.12A11.37,11.37,0,0,1,180.54,130.36Zm-10.29-3.44h4.13a1.05,1.05,0,0,0,1-1.49,3,3,0,0,0-3-1.7,3.23,3.23,0,0,0-3.05,1.67A1,1,0,0,0,170.25,126.92Z"/><path class="cls-4" d="M199.76,130.36H189.19a1.06,1.06,0,0,0-1,1.45,3.39,3.39,0,0,0,3.52,2.27,4.12,4.12,0,0,0,3.57-1.75,1.05,1.05,0,0,1,1.28-.28l1.83.9a1.07,1.07,0,0,1,.43,1.53,8.14,8.14,0,0,1-7,3.53c-6.14,0-9.05-3.9-9.05-9.13s3.26-9.15,8.88-9.15c5.08,0,8.21,3.58,8.21,9.12A11.43,11.43,0,0,1,199.76,130.36Zm-10.29-3.44h4.13a1.05,1.05,0,0,0,1-1.49,3,3,0,0,0-3-1.7,3.25,3.25,0,0,0-3.06,1.67A1,1,0,0,0,189.47,126.92Z"/><path class="cls-4" d="M216.72,122l-1.19,2.08a1,1,0,0,1-1.3.45,4.89,4.89,0,0,0-1.95-.35,4.33,4.33,0,0,0-4.14,4.66v7.72a1.06,1.06,0,0,1-1,1.06h-3a1.06,1.06,0,0,1-1-1.06V121.17a1.05,1.05,0,0,1,1-1.06h2.6a1.05,1.05,0,0,1,1,1l.19,1.76a6,6,0,0,1,5-3.06,5.85,5.85,0,0,1,3.52.91A1,1,0,0,1,216.72,122Z"/><path class="cls-4" d="M217.33,135.13a2.9,2.9,0,1,1,2.88,2.88A2.94,2.94,0,0,1,217.33,135.13Z"/><path class="cls-4" d="M243.36,126.57v10a1.06,1.06,0,0,1-1.05,1.06h-3a1.06,1.06,0,0,1-1-1.06v-9.4a3,3,0,0,0-3.27-3,3.4,3.4,0,0,0-3.57,3.26v9.12a1.07,1.07,0,0,1-1.06,1.06h-3a1.06,1.06,0,0,1-1.06-1.06V121.17a1.05,1.05,0,0,1,1.06-1.06H230A1.06,1.06,0,0,1,231,121l.15,1.13a7.08,7.08,0,0,1,5.33-2.39C240.59,119.76,243.36,122.43,243.36,126.57Z"/><path class="cls-4" d="M263.42,120.11a1.05,1.05,0,0,1,1.06,1.06v16.42c0,5.33-3.62,8.84-9,8.84a12.25,12.25,0,0,1-4.44-.78,1,1,0,0,1-.65-1v-2.3a1.05,1.05,0,0,1,1.52-.94,8.16,8.16,0,0,0,3.6.79c2.11,0,3.9-1.48,3.9-4.63v-1.48a6.65,6.65,0,0,1-4.77,1.9c-4.81,0-8.14-4-8.14-9.13s3.33-9.12,8.14-9.12a6.68,6.68,0,0,1,5.05,2.18l.12-.91a1.06,1.06,0,0,1,1-.92Zm-4,10.41v-3.27a1,1,0,0,0-.09-.43,4.06,4.06,0,0,0-3.66-2.6c-2.5,0-4.11,2.07-4.11,4.66s1.61,4.64,4.11,4.64A4,4,0,0,0,259.3,131,1,1,0,0,0,259.39,130.52Z"/></svg>