<svg id="Layer_1" data-name="Layer 1" xmlns="http://www.w3.org/2000/svg" viewBox="0 0 300 200"><defs><style>.cls-1{fill:#188038;}.cls-2,.cls-3,.cls-4{fill:#fff;}.cls-3{opacity:0.8;}.cls-4{opacity:0.5;}</style></defs><title>volunteerNG variant</title><rect class="cls-1" width="300" height="200"/><path class="cls-2" d="M64.68,128.19l-6.33,15.74a.81.81,0,0,1-.76.51H53.9a.83.83,0,0,1-.76-.51l-6.29-15.74a.82.82,0,0,1,.76-1.13h3.62a.81.81,0,0,1,.77.57l3,8.92a.82.82,0,0,0,1.56,0l3-8.93a.83.83,0,0,1,.78-.56h3.62A.82.82,0,0,1,64.68,128.19Z"/><path class="cls-2" d="M65.51,135.75a9.08,9.08,0,1,1,9.08,9A8.84,8.84,0,0,1,65.51,135.75Zm13.14,0c0-2.57-1.67-4.62-4.06-4.62s-4.07,2.05-4.07,4.62,1.6,4.59,4.07,4.59S78.65,138.33,78.65,135.75Z"/><path class="cls-2" d="M87,138.36V119.19a.82.82,0,0,1,.82-.82h3.43a.82.82,0,0,1,.82.82V138.4c0,1.42.73,2.12,1.81,2.12a2.37,2.37,0,0,0,1-.21.83.83,0,0,1,1,.32l1.48,2.21a.83.83,0,0,1-.25,1.17,6.42,6.42,0,0,1-3.26.78C89.15,144.79,87,142.22,87,138.36Z"/><path class="cls-2" d="M115.84,127.88v15.74a.81.81,0,0,1-.82.82h-3a.82.82,0,0,1-.81-.71l-.18-1.34a6.9,6.9,0,0,1-12.13-4.65v-9.86a.82.82,0,0,1,.82-.82h3.43a.82.82,0,0,1,.82.82v9.23a3.21,3.21,0,0,0,3.27,3.23,3.38,3.38,0,0,0,3.54-3.23v-9.23a.83.83,0,0,1,.83-.82H115A.82.82,0,0,1,115.84,127.88Z"/><path class="cls-2" d="M136.94,133.46v10.16a.81.81,0,0,1-.82.82h-3.43a.82.82,0,0,1-.82-.82v-9.53a2.94,2.94,0,0,0-3.23-3,3.37,3.37,0,0,0-3.55,3.23v9.26a.82.82,0,0,1-.82.82h-3.43a.82.82,0,0,1-.83-.82V127.88a.83.83,0,0,1,.83-.82h3a.84.84,0,0,1,.82.71l.18,1.31a7,7,0,0,1,5.28-2.36C134.2,126.72,136.94,129.36,136.94,133.46Z"/><path class="cls-2" d="M151.86,142.84a.83.83,0,0,1-.26,1.17,6.37,6.37,0,0,1-3.26.78c-4.72,0-6.91-2.57-6.91-6.43v-6.69a.82.82,0,0,0-.82-.82h-.45a.82.82,0,0,1-.82-.82v-2.15a.82.82,0,0,1,.82-.82h.45a.82.82,0,0,0,.82-.82V122a.82.82,0,0,1,.82-.83h3.43a.83.83,0,0,1,.82.83v4.26a.82.82,0,0,0,.82.82H150a.82.82,0,0,1,.82.82V130a.82.82,0,0,1-.82.82h-2.71a.82.82,0,0,0-.82.82v6.73c0,1.42.73,2.12,1.81,2.12a2.29,2.29,0,0,0,1-.21.82.82,0,0,1,1,.32Z"/><path class="cls-2" d="M169.3,137.21H159.25a.82.82,0,0,0-.8,1,3.39,3.39,0,0,0,3.63,2.67,4.15,4.15,0,0,0,3.65-1.88.81.81,0,0,1,1-.21l2.2,1.09a.82.82,0,0,1,.33,1.17,8,8,0,0,1-7.08,3.72c-6.08,0-9-3.86-9-9s3.23-9.07,8.79-9.07c5.05,0,8.14,3.55,8.14,9,0,.25,0,.5,0,.76A.8.8,0,0,1,169.3,137.21Zm-9.82-3.4h4.8a.82.82,0,0,0,.78-1.08,3,3,0,0,0-3.12-2.09,3.25,3.25,0,0,0-3.2,2A.83.83,0,0,0,159.48,133.81Z"/><path class="cls-2" d="M188.34,137.21h-10a.81.81,0,0,0-.8,1,3.39,3.39,0,0,0,3.62,2.67,4.16,4.16,0,0,0,3.66-1.88.81.81,0,0,1,1-.21L188,139.9a.82.82,0,0,1,.34,1.17,8,8,0,0,1-7.08,3.72c-6.09,0-9-3.86-9-9s3.23-9.07,8.79-9.07c5,0,8.14,3.55,8.14,9,0,.25,0,.5,0,.76A.81.81,0,0,1,188.34,137.21Zm-9.81-3.4h4.79a.82.82,0,0,0,.79-1.08,3,3,0,0,0-3.13-2.09,3.24,3.24,0,0,0-3.19,2A.83.83,0,0,0,178.53,133.81Z"/><path class="cls-2" d="M206,128.8l-1.38,2.41a.82.82,0,0,1-1.08.32,4.72,4.72,0,0,0-2-.4,4.3,4.3,0,0,0-4.1,4.62v7.87a.82.82,0,0,1-.82.82h-3.44a.82.82,0,0,1-.82-.82V127.88a.82.82,0,0,1,.82-.82h3a.81.81,0,0,1,.81.74h0a.83.83,0,0,0,1.4.49,5.5,5.5,0,0,1,3.78-1.57,5.61,5.61,0,0,1,3.65,1A.82.82,0,0,1,206,128.8Z"/><path class="cls-2" d="M206.5,141.94a2.87,2.87,0,1,1,2.85,2.85A2.91,2.91,0,0,1,206.5,141.94Z"/><path class="cls-2" d="M232.29,133.46v10.16a.82.82,0,0,1-.82.82H228a.82.82,0,0,1-.82-.82v-9.53a2.94,2.94,0,0,0-3.23-3,3.37,3.37,0,0,0-3.54,3.23v9.26a.82.82,0,0,1-.82.82h-3.44a.82.82,0,0,1-.82-.82V127.88a.82.82,0,0,1,.82-.82h3a.82.82,0,0,1,.81.71l.18,1.31a7,7,0,0,1,5.29-2.36C229.54,126.72,232.29,129.36,232.29,133.46Z"/><path class="cls-2" d="M252.39,127.06a.82.82,0,0,1,.82.82v16.49c0,5.29-3.58,8.76-8.93,8.76a12.25,12.25,0,0,1-4.54-.82.82.82,0,0,1-.5-.76v-2.8a.82.82,0,0,1,1.19-.73,8.08,8.08,0,0,0,3.89.94c2.08,0,3.85-1.46,3.85-4.59v-1.46a6.56,6.56,0,0,1-4.72,1.88c-4.77,0-8.07-4-8.07-9s3.3-9,8.07-9a6.63,6.63,0,0,1,5,2.15l.15-1.09a.82.82,0,0,1,.81-.72Zm-4.22,10.36v-3.33a1,1,0,0,0-.06-.34,4.05,4.05,0,0,0-3.66-2.62c-2.46,0-4.06,2.05-4.06,4.62s1.6,4.59,4.06,4.59a4,4,0,0,0,3.66-2.58A1,1,0,0,0,248.17,137.42Z"/><path class="cls-3" d="M154.87,68.48c-.93,19.13-10.71,34.2-10.71,34.2s-8.28-16-7.34-35.08,5.73-34.44,10.71-34.2S155.81,49.35,154.87,68.48Z"/><path class="cls-4" d="M115.53,71.21c-10.23-20.15-14.2-38.68-8.87-41.39s18,11.43,28.19,31.59,9.59,40.45,8.86,41.39C142.63,104.2,125.76,91.37,115.53,71.21Z"/><path class="cls-3" d="M161.68,63.16c15.46-16.49,32.71-25.43,38.53-20s-2,23.24-17.47,39.72-36.78,21.67-38.53,20C142.77,101.49,146.22,79.64,161.68,63.16Z"/><circle class="cls-2" cx="143.79" cy="106.86" r="4.03"/></svg>