<svg id="Layer_1" data-name="Layer 1" xmlns="http://www.w3.org/2000/svg" viewBox="0 0 300 200"><defs><style>.cls-1,.cls-2{fill:#9ecfab;}.cls-1,.cls-3{opacity:0.8;}.cls-2{opacity:0.5;}.cls-3,.cls-4{fill:#168038;}</style></defs><title>volunteerNG full</title><path d="M64.68,126.26,58.35,142a.81.81,0,0,1-.76.52H53.9a.84.84,0,0,1-.76-.52l-6.29-15.74a.82.82,0,0,1,.76-1.13h3.62a.81.81,0,0,1,.77.57l3,8.92a.82.82,0,0,0,1.56,0l3-8.93a.83.83,0,0,1,.78-.56h3.62A.82.82,0,0,1,64.68,126.26Z"/><path d="M65.51,133.83a9.08,9.08,0,1,1,9.08,9A8.84,8.84,0,0,1,65.51,133.83Zm13.14,0c0-2.58-1.67-4.63-4.06-4.63s-4.07,2.05-4.07,4.63,1.6,4.58,4.07,4.58S78.65,136.4,78.65,133.83Z"/><path d="M87,136.43V117.27a.83.83,0,0,1,.82-.83h3.43a.82.82,0,0,1,.82.83v19.2c0,1.42.73,2.12,1.81,2.12a2.37,2.37,0,0,0,1-.21.83.83,0,0,1,1,.32l1.48,2.21a.83.83,0,0,1-.25,1.17,6.42,6.42,0,0,1-3.26.78C89.15,142.86,87,140.29,87,136.43Z"/><path d="M115.84,126v15.73a.82.82,0,0,1-.82.83h-3a.83.83,0,0,1-.81-.71l-.18-1.35a6.9,6.9,0,0,1-12.13-4.65V126a.82.82,0,0,1,.82-.83h3.43a.83.83,0,0,1,.82.83v9.22a3.21,3.21,0,0,0,3.27,3.23,3.38,3.38,0,0,0,3.54-3.23V126a.83.83,0,0,1,.83-.83H115A.82.82,0,0,1,115.84,126Z"/><path d="M136.94,131.53v10.16a.82.82,0,0,1-.82.83h-3.43a.83.83,0,0,1-.82-.83v-9.53a2.94,2.94,0,0,0-3.23-3,3.37,3.37,0,0,0-3.55,3.23v9.26a.83.83,0,0,1-.82.83h-3.43a.83.83,0,0,1-.83-.83V126a.83.83,0,0,1,.83-.83h3a.84.84,0,0,1,.82.71l.18,1.31a7,7,0,0,1,5.28-2.36C134.2,124.79,136.94,127.43,136.94,131.53Z"/><path d="M151.86,140.91a.83.83,0,0,1-.26,1.17,6.37,6.37,0,0,1-3.26.78c-4.72,0-6.91-2.57-6.91-6.43v-6.69a.82.82,0,0,0-.82-.82h-.45a.82.82,0,0,1-.82-.82V126a.83.83,0,0,1,.82-.83h.45a.82.82,0,0,0,.82-.82v-4.26a.81.81,0,0,1,.82-.82h3.43a.82.82,0,0,1,.82.82v4.26a.82.82,0,0,0,.82.82H150a.83.83,0,0,1,.82.83v2.14a.82.82,0,0,1-.82.82h-2.71a.82.82,0,0,0-.82.82v6.73c0,1.42.73,2.12,1.81,2.12a2.29,2.29,0,0,0,1-.21.82.82,0,0,1,1,.32Z"/><path d="M169.3,135.29H159.25a.82.82,0,0,0-.8,1,3.39,3.39,0,0,0,3.63,2.67,4.15,4.15,0,0,0,3.65-1.88.81.81,0,0,1,1-.21l2.2,1.09a.82.82,0,0,1,.33,1.17,8,8,0,0,1-7.08,3.72c-6.08,0-9-3.86-9-9s3.23-9.08,8.79-9.08c5.05,0,8.14,3.55,8.14,9,0,.25,0,.5,0,.76A.81.81,0,0,1,169.3,135.29Zm-9.82-3.41h4.8a.81.81,0,0,0,.78-1.07,3,3,0,0,0-3.12-2.09,3.24,3.24,0,0,0-3.2,2A.83.83,0,0,0,159.48,131.88Z"/><path d="M188.34,135.29h-10a.81.81,0,0,0-.8,1,3.39,3.39,0,0,0,3.62,2.67,4.16,4.16,0,0,0,3.66-1.88.81.81,0,0,1,1-.21L188,138a.82.82,0,0,1,.34,1.17,8,8,0,0,1-7.08,3.72c-6.09,0-9-3.86-9-9s3.23-9.08,8.79-9.08c5,0,8.14,3.55,8.14,9,0,.25,0,.5,0,.76A.82.82,0,0,1,188.34,135.29Zm-9.81-3.41h4.79a.82.82,0,0,0,.79-1.07,3,3,0,0,0-3.13-2.09,3.23,3.23,0,0,0-3.19,2A.83.83,0,0,0,178.53,131.88Z"/><path d="M206,126.87l-1.38,2.41a.82.82,0,0,1-1.08.32,4.72,4.72,0,0,0-2-.4,4.3,4.3,0,0,0-4.1,4.63v7.86a.83.83,0,0,1-.82.83h-3.44a.83.83,0,0,1-.82-.83V126a.83.83,0,0,1,.82-.83h3a.81.81,0,0,1,.81.74h0a.83.83,0,0,0,1.4.49,5.5,5.5,0,0,1,3.78-1.57,5.61,5.61,0,0,1,3.65,1A.82.82,0,0,1,206,126.87Z"/><path d="M206.5,140a2.87,2.87,0,1,1,2.85,2.85A2.91,2.91,0,0,1,206.5,140Z"/><path d="M232.29,131.53v10.16a.83.83,0,0,1-.82.83H228a.83.83,0,0,1-.82-.83v-9.53a2.94,2.94,0,0,0-3.23-3,3.37,3.37,0,0,0-3.54,3.23v9.26a.83.83,0,0,1-.82.83h-3.44a.83.83,0,0,1-.82-.83V126a.83.83,0,0,1,.82-.83h3a.82.82,0,0,1,.81.71l.18,1.31a7,7,0,0,1,5.29-2.36C229.54,124.79,232.29,127.43,232.29,131.53Z"/><path d="M252.39,125.13a.82.82,0,0,1,.82.83v16.49c0,5.28-3.58,8.76-8.93,8.76a12.25,12.25,0,0,1-4.54-.83.82.82,0,0,1-.5-.76v-2.8a.82.82,0,0,1,1.19-.73,8.08,8.08,0,0,0,3.89.94c2.08,0,3.85-1.46,3.85-4.58V141a6.59,6.59,0,0,1-4.72,1.87c-4.77,0-8.07-4-8.07-9s3.3-9,8.07-9a6.63,6.63,0,0,1,5,2.15l.15-1.09a.82.82,0,0,1,.81-.72Zm-4.22,10.36v-3.33a1,1,0,0,0-.06-.34,4.05,4.05,0,0,0-3.66-2.62c-2.46,0-4.06,2.05-4.06,4.63s1.6,4.58,4.06,4.58a4,4,0,0,0,3.66-2.58A1,1,0,0,0,248.17,135.49Z"/><path class="cls-1" d="M154.87,66.55c-.93,19.13-10.71,34.2-10.71,34.2s-8.28-16-7.34-35.08,5.73-34.44,10.71-34.2S155.81,47.42,154.87,66.55Z"/><path class="cls-2" d="M115.53,69.28c-10.23-20.15-14.2-38.68-8.87-41.39s18,11.43,28.19,31.59,9.59,40.45,8.86,41.4C142.63,102.28,125.76,89.44,115.53,69.28Z"/><path class="cls-3" d="M161.68,61.23c15.46-16.49,32.71-25.43,38.53-20S198.2,64.5,182.74,81,146,102.65,144.21,101C142.77,99.56,146.22,77.72,161.68,61.23Z"/><circle class="cls-4" cx="143.79" cy="104.93" r="4.03"/></svg>