<svg id="Layer_1" data-name="Layer 1" xmlns="http://www.w3.org/2000/svg" viewBox="0 0 179.16 112.07"><defs><style>.cls-1{fill:#138140;}.cls-2{fill:#9fd4ae;}.cls-3{fill:#d1e7c6;}</style></defs><title>volunteer.ng logo</title><path class="cls-1" d="M326.45,213.77h5.76v1.17h-2.37l4.29,11.22c.09.21.12.45.21.66a1.07,1.07,0,0,1,.06.3h.06a1.07,1.07,0,0,1,.06-.3c.09-.21.12-.45.21-.66L339,214.94h-2.37v-1.17h5.76v1.17h-2L335,228.77h-1.2l-5.34-13.83h-2Z" transform="translate(-326.45 -123)"/><path class="cls-1" d="M351.92,213.41a7.71,7.71,0,0,1,7.77,7.77,7.77,7.77,0,1,1-15.54,0A7.71,7.71,0,0,1,351.92,213.41Zm0,14.49a6.5,6.5,0,0,0,6.45-6.72,6.45,6.45,0,1,0-12.9,0A6.5,6.5,0,0,0,351.92,227.9Z" transform="translate(-326.45 -123)"/><path class="cls-1" d="M364.07,208.94h-2.82v-1.17h4.08v17.58c0,1.17.33,2.31,1.77,2.31a3.28,3.28,0,0,0,.66,0,.66.66,0,0,1,.24,0l0,1.17a1.36,1.36,0,0,0-.33,0,5.28,5.28,0,0,1-.75,0c-1.8,0-2.82-1-2.82-3.36Z" transform="translate(-326.45 -123)"/><path class="cls-1" d="M372.17,214.94h-2.85v-1.17h4.11v9.06c0,2.64.33,5.07,3.69,5.07,3.75,0,6.15-3.3,6.15-6.81v-6.15h-2.85v-1.17h4.11V227a.58.58,0,0,0,.66.66H387v1.14h-2c-1.23,0-1.74-.48-1.74-1.65v-.84a7,7,0,0,1,0-.87,1.47,1.47,0,0,0,0-.36h-.06a6.58,6.58,0,0,1-6.15,4.08c-3.69,0-5-2-5-5.85Z" transform="translate(-326.45 -123)"/><path class="cls-1" d="M389.36,227.6h2.7v-12a.58.58,0,0,0-.66-.66h-2.19v-1.17h2.37c1.23,0,1.74.48,1.74,1.65v1a6.62,6.62,0,0,1-.06.87l-.06.36h.06a6.91,6.91,0,0,1,6.36-4.23c3.93,0,5,2.34,5,5.85v8.34h2.7v1.17h-4v-9.06c0-2.64-.33-5.07-3.69-5.07a6.5,6.5,0,0,0-6.3,6.69v6.27H396v1.17h-6.66Z" transform="translate(-326.45 -123)"/><path class="cls-1" d="M411.2,214.94h-2.85v-1.17h2.85V209.6h1.26v4.17h3.93v1.17h-3.93v8.31c0,4,2.37,4.47,3.57,4.47a2,2,0,0,0,.51,0,.53.53,0,0,1,.18,0v1.17a.59.59,0,0,0-.21,0,2.28,2.28,0,0,1-.54,0c-1.56,0-4.77-.57-4.77-5.55Z" transform="translate(-326.45 -123)"/><path class="cls-1" d="M426.17,213.41c4.11,0,6.12,3.21,6.12,6.84a3.23,3.23,0,0,1,0,.54.82.82,0,0,0,0,.27h-12c0,4.35,2.94,6.84,6.42,6.84a6.7,6.7,0,0,0,3.42-1,5.71,5.71,0,0,0,1.23-.93l.69,1a7.3,7.3,0,0,1-1.44,1,8,8,0,0,1-3.9,1,7.54,7.54,0,0,1-7.74-7.83C418.88,216.26,422.33,213.41,426.17,213.41Zm4.8,6.48c-.15-3.69-2.31-5.31-4.83-5.31a5.86,5.86,0,0,0-5.85,5.31Z" transform="translate(-326.45 -123)"/><path class="cls-1" d="M442.64,213.41c4.11,0,6.12,3.21,6.12,6.84a3.23,3.23,0,0,1,0,.54.82.82,0,0,0,0,.27h-12c0,4.35,2.94,6.84,6.42,6.84a6.7,6.7,0,0,0,3.42-1,5.71,5.71,0,0,0,1.23-.93l.69,1a7.3,7.3,0,0,1-1.44,1,8,8,0,0,1-3.9,1,7.54,7.54,0,0,1-7.74-7.83C435.35,216.26,438.8,213.41,442.64,213.41Zm4.8,6.48c-.15-3.69-2.31-5.31-4.83-5.31a5.86,5.86,0,0,0-5.85,5.31Z" transform="translate(-326.45 -123)"/><path class="cls-1" d="M451.79,227.6h2.4v-12a.58.58,0,0,0-.66-.66h-2.19v-1.17h2.37c1.23,0,1.74.48,1.74,1.65v1.05a7.26,7.26,0,0,1,0,.87,1.45,1.45,0,0,0,0,.36h.06c.75-2.31,2.34-4,4.74-4a3.49,3.49,0,0,1,.6,0l.27.06V215a.59.59,0,0,1-.21,0,2.12,2.12,0,0,0-.48,0c-3.51,0-4.92,4.32-4.92,7.35v5.31h2.4v1.17h-6.06Z" transform="translate(-326.45 -123)"/><path class="cls-1" d="M464.09,226.88h1.83v1.89h-1.83Z" transform="translate(-326.45 -123)"/><path class="cls-1" d="M469.91,227.6h2.7v-12a.58.58,0,0,0-.66-.66h-2.19v-1.17h2.37c1.23,0,1.74.48,1.74,1.65v1a6.7,6.7,0,0,1-.06.87l-.06.36h.06a6.91,6.91,0,0,1,6.36-4.23c3.93,0,5,2.34,5,5.85v8.34h2.7v1.17h-4v-9.06c0-2.64-.33-5.07-3.69-5.07a6.5,6.5,0,0,0-6.3,6.69v6.27h2.7v1.17h-6.66Z" transform="translate(-326.45 -123)"/><path class="cls-1" d="M491.93,232.79a6.3,6.3,0,0,0,1.2.54,8.46,8.46,0,0,0,2.82.51c3.24,0,5.7-1.56,5.7-5.16v-1.74a6.14,6.14,0,0,1,.06-.87l.06-.36h-.06a5.29,5.29,0,0,1-5,3.06c-3.9,0-6.66-3.06-6.66-7.74s2.55-7.62,6.45-7.62c2.25,0,4.41.84,5.22,2.85h.06a.52.52,0,0,0,0-.18,3,3,0,0,1-.06-.57c0-1.23.45-1.74,1.74-1.74h2.22v1.17h-2a.58.58,0,0,0-.66.66v13.08c0,4.56-3.3,6.39-6.87,6.39a10.23,10.23,0,0,1-4.71-1.17ZM501.68,221c0-4.83-2.28-6.39-5.22-6.39-3.24,0-5.13,2.31-5.13,6.39s2.19,6.51,5.43,6.51C499.43,227.54,501.68,225.92,501.68,221Z" transform="translate(-326.45 -123)"/><path class="cls-2" d="M444.16,152.87a2.56,2.56,0,0,1-.91.66,16.65,16.65,0,0,1-3.68,1l-5,.84-5.35,2.95c-1.36.76-8.36,5.94-8.48,6-3,1.12-6.62,3.84-9.85,5.83.54-1.42,1.06-2.89,1.59-4.37l.49-1.39.16-.13a0,0,0,0,0,0,0,.88.88,0,0,0,.16-.13l.09-.06c0-.06,2.23-2.33,4.28-4.44a0,0,0,0,0,0,0c1.81-1.87,3.51-3.6,3.51-3.6a19,19,0,0,1,1.54-1.57,8.31,8.31,0,0,1,2.65-1.39c0,.07.06,0,.12,0l.58-.19c1-.31,2.09-.57,3.16-.87.69-.18,1.36-.37,2-.57a19.56,19.56,0,0,0,1.94-.57,13.67,13.67,0,0,1,2.59-.94,20.72,20.72,0,0,1,3.05,0,26.68,26.68,0,0,0,3.8-.52,2.74,2.74,0,0,1,1.61.24C445.61,150.16,444.71,152.06,444.16,152.87Z" transform="translate(-326.45 -123)"/><path class="cls-1" d="M420.74,165.12s0,0,0,0l0,0c-.31.91-.66,1.78-1,2.68q-3.8,9.67-7.37,17.66a5.69,5.69,0,0,1-5.2,3.38h0a5.69,5.69,0,0,1-5.2-3.38q-3.57-8-7.37-17.66t-6.86-20.35a3.3,3.3,0,0,1,3.18-4.19h1.85a3.29,3.29,0,0,1,3.19,2.45q.84,3.21,1.88,6.7,1.46,4.87,3.07,9.65t3.29,9.26c1.11,3,2.17,5.64,3.16,8q1.5-3.5,3.16-8c0-.1.07-.19.1-.3,3.23-2,6.89-4.71,9.85-5.83A3.29,3.29,0,0,1,420.74,165.12Z" transform="translate(-326.45 -123)"/><path class="cls-2" d="M436.51,128.65c-.36.6-4,2.77-5,3.92-.78.91-3.3,5.25-3.78,6.06,0,0-1.23,1.09-2.11,1.78l-.06,0-2.63,2a14.32,14.32,0,0,0-1.88,1.63,27.42,27.42,0,0,0-2.15,3.11,7.83,7.83,0,0,0-.75,1.06.05.05,0,0,0,0,0l0,.07s0,0,0,.06a41.12,41.12,0,0,0-1.38,3.95s.94-9,1.3-10.5c.57-2.35,6.74-9.93,6.74-9.93,1-1.56,2.32-3.6,3.83-4.43,1.09-.6,4.55-3.93,5.65-4.37a2.34,2.34,0,0,1,3,1.63A4.31,4.31,0,0,1,436.51,128.65Z" transform="translate(-326.45 -123)"/><path class="cls-3" d="M442.68,134.92a5.88,5.88,0,0,1-2.2,2.83,12.86,12.86,0,0,1-1.63,1.17c-.54.33-1.06.69-1.64,1a11.92,11.92,0,0,0-2.9,2.18,43,43,0,0,1-3.72,3.26,8.37,8.37,0,0,0-2.17,2.81,20.42,20.42,0,0,1-1.91,3.38c-.19.24-.39.46-.57.7l-.58.19c-.06.07-.15.12-.12,0a8.31,8.31,0,0,0-2.65,1.39,19,19,0,0,0-1.54,1.57s-1.7,1.73-3.51,3.6a0,0,0,0,1,0,0c-2,2.11-4.25,4.38-4.28,4.44l-.25.19.13-.34c.48-1.18,1-2.38,1.41-3.57s.79-2.09,1.17-3.14c.3-.79.58-1.57.85-2.35v0q.94-2.69,1.75-5.2l0-.07a.05.05,0,0,1,0,0,7.83,7.83,0,0,1,.75-1.06,27.42,27.42,0,0,1,2.15-3.11,14.32,14.32,0,0,1,1.88-1.63l2.63-2,.06,0,2.74-2.12c.7-.55,1.32-1,1.73-1.39a5,5,0,0,0,.52-.48,4.06,4.06,0,0,1,1.66-1.23c.75-.3,1.53-.49,2.24-.84.54-.27,1-.58,1.54-.9.75-.48,1.5-1,2.26-1.45a2.3,2.3,0,0,1,1.87-.57,3.75,3.75,0,0,1,1.76.67A1.88,1.88,0,0,1,442.68,134.92Z" transform="translate(-326.45 -123)"/></svg>