<svg id="Layer_1" data-name="Layer 1" xmlns="http://www.w3.org/2000/svg" viewBox="0 0 300 200"><defs><style>.cls-1,.cls-2{fill:#9ecfab;}.cls-1,.cls-3{opacity:0.8;}.cls-2{opacity:0.5;}.cls-3,.cls-4{fill:#168038;}</style></defs><title>volunteerNG mark</title><path class="cls-1" d="M151.66,98.29c-.93,19.13-10.71,34.2-10.71,34.2s-8.28-16-7.34-35.08,5.73-34.44,10.71-34.2S152.59,79.16,151.66,98.29Z"/><path class="cls-2" d="M112.32,101c-10.23-20.16-14.2-38.69-8.87-41.4s18,11.44,28.18,31.59,9.6,40.45,8.87,41.4C139.41,134,122.54,121.18,112.32,101Z"/><path class="cls-3" d="M158.47,93C173.93,76.49,191.18,67.55,197,73s-2,23.24-17.47,39.73-36.78,21.67-38.53,20C139.56,131.3,143,109.46,158.47,93Z"/><circle class="cls-4" cx="140.58" cy="136.67" r="4.03"/></svg>